<svg width="1024" height="1024" viewBox="0 0 1024 1024" fill="none" xmlns="http://www.w3.org/2000/svg">
<rect width="1024" height="1024" rx="228" fill="#3B82F6"/>
<rect width="1024" height="1024" rx="228" fill="url(#paint0_linear_6303_364)"/>
<path d="M418.886 698.903C455.296 698.903 496.393 717.129 533.884 776.318C552.39 805.612 580.569 828.169 613.134 839.838C694.245 868.892 783.829 826.545 812.849 745.34C841.869 664.135 799.571 574.448 718.459 545.395C672.435 528.913 642.394 504.672 626.652 471.288C610.911 437.904 611.271 399.286 627.734 353.21C639.33 320.788 639.87 284.877 629.236 252.095C602.559 169.987 514.237 124.994 432.344 151.701C392.69 164.634 360.365 192.243 341.439 229.477C322.513 266.711 319.208 309.058 332.126 348.819C371.48 469.904 298.6 513.635 251.675 528.913C243.084 531.741 234.852 535.59 227.222 540.402C176.872 572.403 161.852 639.412 193.756 689.82C225.659 740.227 292.652 755.265 343.001 723.324C361.927 711.294 388.784 698.903 418.826 698.903H418.886Z" fill="#ECECEC"/>
<defs>
<linearGradient id="paint0_linear_6303_364" x1="0" y1="0" x2="1024" y2="1024" gradientUnits="userSpaceOnUse">
<stop stop-color="#FF6B35"/>
<stop offset="1" stop-color="#F7931E"/>
</linearGradient>
</defs>
</svg>
