<svg width="1024" height="1024" viewBox="0 0 1024 1024" fill="none" xmlns="http://www.w3.org/2000/svg">
<rect width="1024" height="1024" rx="228" fill="#3B82F6"/>
<path d="M431.886 698.903C468.296 698.903 509.393 717.129 546.884 776.318C565.39 805.612 593.569 828.169 626.134 839.838C707.245 868.892 796.829 826.545 825.849 745.34C854.869 664.135 812.571 574.448 731.459 545.395C685.435 528.913 655.394 504.672 639.652 471.288C623.911 437.904 624.271 399.286 640.734 353.21C652.33 320.788 652.87 284.877 642.236 252.095C615.559 169.987 527.237 124.994 445.344 151.701C405.69 164.634 373.365 192.243 354.439 229.477C335.513 266.711 332.208 309.058 345.126 348.819C384.48 469.904 311.6 513.635 264.675 528.913C256.084 531.741 247.852 535.59 240.222 540.402C189.872 572.403 174.852 639.412 206.756 689.82C238.659 740.227 305.652 755.265 356.001 723.324C374.927 711.294 401.784 698.903 431.826 698.903H431.886Z" fill="#ECECEC"/>
</svg>
